<svg width="24" height="24" viewBox="0 0 24 24" fill="none" xmlns="http://www.w3.org/2000/svg" data-v-7c3f0deb=""><path d="M14.3647 5.84231C13.522 5.01239 12.4527 4.45006 11.2914 4.22598C10.13 4.00189 8.92836 4.12606 7.83736 4.58287C6.74636 5.03967 5.81471 5.80875 5.15947 6.79345C4.50424 7.77815 4.15466 8.93454 4.15466 10.1173C4.15466 11.3001 4.50424 12.4565 5.15947 13.4412C5.81471 14.4259 6.74636 15.195 7.83736 15.6518C8.92836 16.1086 10.13 16.2327 11.2914 16.0086C12.4527 15.7846 13.522 15.2222 14.3647 14.3923C14.9316 13.834 15.3818 13.1685 15.6891 12.4346C15.9964 11.7007 16.1547 10.913 16.1547 10.1173C16.1547 9.32165 15.9964 8.53393 15.6891 7.80001C15.3818 7.06608 14.9316 6.40061 14.3647 5.84231ZM13.0247 13.0523C12.4443 13.6326 11.7048 14.0277 10.8998 14.1877C10.0948 14.3477 9.26047 14.2654 8.50224 13.9513C7.74401 13.6371 7.09596 13.1052 6.64001 12.4228C6.18407 11.7403 5.94071 10.938 5.94071 10.1173C5.94071 9.29658 6.18407 8.49428 6.64001 7.81185C7.09596 7.12941 7.74401 6.5975 8.50224 6.28335C9.26047 5.9692 10.0948 5.88694 10.8998 6.04695C11.7048 6.20696 12.4443 6.60207 13.0247 7.18231C13.4126 7.56634 13.7205 8.02346 13.9307 8.52724C14.1409 9.03102 14.2491 9.57146 14.2491 10.1173C14.2491 10.6632 14.1409 11.2036 13.9307 11.7074C13.7205 12.2112 13.4126 12.6683 13.0247 13.0523Z" fill="#888" data-v-7c3f0deb=""></path> <path d="M19.3447 17.3622C17.9747 16.2122 16.9347 15.3622 15.5547 14.2422C15.1917 14.7653 14.7378 15.2191 14.2147 15.5822C15.3747 16.9622 16.2147 18.0022 17.3347 19.3722C17.4611 19.5237 17.6176 19.6472 17.7943 19.7349C17.9711 19.8225 18.1641 19.8724 18.3612 19.8813C18.5583 19.8902 18.755 19.8579 18.9389 19.7866C19.1228 19.7152 19.2899 19.6063 19.4294 19.4668C19.5689 19.3273 19.6778 19.1603 19.7491 18.9764C19.8205 18.7925 19.8527 18.5957 19.8438 18.3986C19.8349 18.2016 19.7851 18.0085 19.6974 17.8318C19.6097 17.6551 19.4862 17.4985 19.3347 17.3722L19.3447 17.3622Z" fill="#888" data-v-7c3f0deb=""></path></svg>