<svg xmlns="http://www.w3.org/2000/svg" width="103.72" height="100.79" viewBox="0 0 103.72 100.79"><title>header-logo-320</title><path d="M1.28,93.36v7.26H2.57V94h0L4,100.62h1L6.32,94h0v6.58H7.62V93.36H5.41l-1,4.72-1-4.72H1.28Zm6.9,7.26H9.65l0.43-1.89h1.56L12,100.62h1.49l-1.61-7.26H10Zm2.08-3,0.66-3.38,0.55,3.38H10.26Zm3.79-4.3v7.26h1.38V94.46h2.44V93.36H14.05Zm3.56,7.26h1.48l0.43-1.89h1.56l0.34,1.89h1.49L21.3,93.36H19.45Zm2.08-3,0.66-3.38,0.55,3.38H19.69Zm5-2.2a0.93,0.93,0,0,1,.83-1.12,0.85,0.85,0,0,1,.76,1,0.84,0.84,0,0,1-.91.93H25.11v1h0.29a1,1,0,0,1,1,1.17c0,0.75-.24,1.21-0.91,1.21a0.86,0.86,0,0,1-.9-1H23.27a2,2,0,0,0,2.31,2.1,2,2,0,0,0,2.23-2.18,1.69,1.69,0,0,0-1.22-1.87,1.58,1.58,0,0,0,1.12-1.58,1.94,1.94,0,0,0-2.17-1.93,2.07,2.07,0,0,0-2.16,2.22h1.34Zm4.06-2.09v7.26h1.49l2-5.27h0a12.3,12.3,0,0,0-.17,2.53v2.75h1.29V93.36H31.92l-2,5.28h0a14.85,14.85,0,0,0,.17-2.57V93.36H28.78Zm7,0H34.41v7.26h1.38V97.26h1.82v3.36H39V93.36H37.61v2.8H35.79v-2.8Zm6.62,0v7.26H43.9l2-5.27h0a12.3,12.3,0,0,0-.17,2.53v2.75H47V93.36H45.55l-2,5.28h0a14.85,14.85,0,0,0,.17-2.57V93.36H42.41Zm7,0H48v7.26h1.38V97.26h1.82v3.36h1.38V93.36H51.24v2.8H49.42v-2.8ZM58,95.72V95.36a2,2,0,0,0-2.17-2.13c-1.5,0-2.26.79-2.26,2.5v2.65c0,1.29.43,2.42,2.24,2.42S58,99.66,58,98.35V98H56.63v0.39c0,0.94-.27,1.26-0.83,1.26S55,99.37,55,98.43V95.56c0-.92.25-1.23,0.84-1.23s0.82,0.31.82,1.23v0.16H58Zm3.73-1.26h1.71V93.36h-4.8v1.11h1.71v6.16h1.38V94.46Zm3.77,3.2h1.21a2,2,0,0,0,1.93-2.18,2,2,0,0,0-1.91-2.12H64.13v7.26H65.5v-3Zm0-3.23H66.2a0.94,0.94,0,0,1,1,1.07,1,1,0,0,1-1,1.09H65.5V94.43Zm3.67-1.08,2,5.75a0.67,0.67,0,0,1-.61.58,1.23,1.23,0,0,1-.38-0.08v1.06a2.6,2.6,0,0,0,.84.13c0.67,0,1.11-.41,1.49-1.56l2-5.88H73l-1.12,3.85-1.12-3.85H69.18Zm5.88,0v7.26h1.29V94h0l1.38,6.57h1L80.09,94h0v6.58h1.29V93.36h-2.2l-1,4.72-1-4.72h-2.2Zm7.35,0v7.26h3.88V99.51H83.78V97.26h2.28V96.15H83.78V94.46h2.51V93.36H82.4Zm6.12,0H87.15v7.26h1.38V97.26h1.82v3.36h1.38V93.36H90.35v2.8H88.53v-2.8Zm7,1.11h1.71V93.36h-4.8v1.11h1.71v6.16H95.5V94.46Zm1.57,6.16h1.48L99,98.73h1.56l0.34,1.89h1.49l-1.61-7.26H98.9Zm2.08-3,0.66-3.38,0.55,3.38H99.14Z"/><rect width="103.72" height="85.91" fill="#fc0"/><path d="M26.23,33.07c3.43-2.67,6.28-.83,10.07,3.57,0.43,0.5,1-.08,1.33-0.37s5.33-4.8,5.58-5a0.72,0.72,0,0,0,.15-1.07Q42,28.47,40.63,26.7C34,18,58.82,12.11,55,12c-1.94-.05-9.73-0.14-10.89,0-4.72.5-10.64,4.9-13.62,7a37.29,37.29,0,0,0-5.6,4.45c-1.1,1-.18,3.19-2.18,4.94s-3.43.45-4.66,1.52c-0.61.54-2.31,1.81-2.79,2.23a1.19,1.19,0,0,0-.08,1.73s4.65,5.13,5,5.59a1.6,1.6,0,0,0,2.08.26c0.65-.57,2.32-2,2.6-2.29S24.73,34.23,26.23,33.07Zm21,1.9a0.94,0.94,0,0,0-1.46-.11l-5.27,4.6a1.06,1.06,0,0,0-.1,1.47l30.49,34.7a2,2,0,0,0,2.76.19l3.57-3a2,2,0,0,0,.19-2.79ZM87.88,20.2c-0.27-1.82-1.21-1.44-1.7-.67s-2.65,4.05-3.54,5.54-3.06,4.38-7.11,1.51c-4.22-3-2.75-5.06-2-6.46s3-5.36,3.33-5.85a1,1,0,0,0-1.36-1.33c-1.31.6-9.28,3.77-10.38,8.31S66,30,62,34.09L57,39.24,62,45l6.08-5.77A8.61,8.61,0,0,1,75.42,37c6,1.36,9.28-.9,11.25-4.63C88.45,29,88.15,22,87.88,20.2ZM24.78,70.44a2,2,0,0,0,0,2.79l3.5,3.42A2,2,0,0,0,31,76.32l18-17.74-5.53-6.3Z"/></svg>